# xmcd
#
# Track frame offsets:
# 150
# 23667
# 41575
# 64300
# 86505
# 104887
# 128645
# 145187
# 164985
# 188945
# 204720
# 227120
# 244497
# 263265
# 280327
# 297840
# 314107
# 327620
# 344275
#
# Disc length: 4776 seconds
#
#
# Revision: 0
# Processed by: cddbd v1.4PL0 Copyright (c) Steve Scherf et al.
# Submitted via: HACP 1.12
#
DISCID=3412a613
DTITLE=Doug MacLeod - Robert Lucas - You Can't Take My Blues - Usin' Man Blues
DYEAR=1900
DGENRE=
TTITLE0=Doug MacLeod - One Good Woman
TTITLE1=Doug MacLeod - Bus With No Destination
TTITLE2=Doug MacLeod - You Can't Take My Blues
TTITLE3=Doug MacLeod - Things'll Be Better, You'll See
TTITLE4=Doug MacLeod - Papa John
TTITLE5=Doug MacLeod - Hey Bartender
TTITLE6=Doug MacLeod - Another Funny Deal Goin' Down
TTITLE7=Doug MacLeod - Walkin' My Way Back To You
TTITLE8=Doug MacLeod - All I Had Was The Blues
TTITLE9=Doug MacLeod - Runnin' With Carey
TTITLE10=Doug MacLeod - Chill On Cold
TTITLE11=Doug MacLeod - Handle It Yourself
TTITLE12=Doug MacLeod - Sometimes I Wonder
TTITLE13=Robert Lucas - Usin' Man
TTITLE14=Robert Lucas - Ramblin' On My Mind
TTITLE15=Robert Lucas - What Happened To My Shoes
TTITLE16=Robert Lucas - If I Had Posession Over Judgement Day
TTITLE17=Robert Lucas - If You See That Woman
TTITLE18=Robert Lucas - Dancin' With Mr Jones
EXTD=
EXTT0=
EXTT1=
EXTT2=
EXTT3=
EXTT4=
EXTT5=
EXTT6=
EXTT7=
EXTT8=
EXTT9=
EXTT10=
EXTT11=
EXTT12=
EXTT13=
EXTT14=
EXTT15=
EXTT16=
EXTT17=
EXTT18=
PLAYORDER=
